<svg xmlns="http://www.w3.org/2000/svg" xmlns:xlink="http://www.w3.org/1999/xlink" version="1.1" x="0px" y="0px" viewBox="0 0 100 125" enable-background="new 0 0 100 100" xml:space="preserve"><path fill-rule="evenodd" clip-rule="evenodd" d="M51.022,15.26c0.317,0.425,0.569,0.725,0.783,1.053  c5.913,9.079,11.828,18.156,17.729,27.245c3.228,4.971,5.229,10.373,5.121,16.572c-0.255,14.639-11.925,24.624-22.822,24.61  c-7.27-0.01-13.366-2.43-18.282-8.123c-6.918-8.011-8.2-19.618-3.127-29.326c1.902-3.64,4.3-6.98,6.515-10.426  c4.379-6.81,8.786-13.597,13.187-20.39C50.375,16.091,50.667,15.738,51.022,15.26z"/><text x="0" y="115" fill="#000000" font-size="5px" font-weight="bold" font-family="'Helvetica Neue', Helvetica, Arial-Unicode, Arial, Sans-serif">Created by hash</text><text x="0" y="120" fill="#000000" font-size="5px" font-weight="bold" font-family="'Helvetica Neue', Helvetica, Arial-Unicode, Arial, Sans-serif">from the Noun Project</text></svg>