<svg xmlns="http://www.w3.org/2000/svg" xmlns:xlink="http://www.w3.org/1999/xlink" version="1.1" x="0px" y="0px" viewBox="0 0 100 125" style="enable-background:new 0 0 100 100;" xml:space="preserve"><path d="M76.3,57.2c-5.3,0-8.2-2-10.5-3.5c-2-1.4-3.7-2.5-7.1-2.5s-5.1,1.1-7.1,2.5c-2.3,1.6-5.2,3.5-10.5,3.5  c-5.3,0-8.2-2-10.5-3.5c-2-1.4-3.7-2.5-7.1-2.5c-1.7,0-3-1.3-3-3s1.3-3,3-3c5.3,0,8.2,2,10.5,3.5c2,1.4,3.7,2.5,7.1,2.5  c3.5,0,5.1-1.1,7.1-2.5c2.3-1.6,5.2-3.5,10.5-3.5c5.3,0,8.2,2,10.5,3.5c2,1.4,3.7,2.5,7.1,2.5c1.7,0,3,1.3,3,3S78,57.2,76.3,57.2z"/><path d="M76.3,44.2c-5.3,0-8.2-2-10.5-3.5c-2-1.4-3.7-2.5-7.1-2.5s-5.1,1.1-7.1,2.5c-2.3,1.6-5.2,3.5-10.5,3.5  c-5.3,0-8.2-2-10.5-3.5c-2-1.4-3.7-2.5-7.1-2.5c-1.7,0-3-1.3-3-3s1.3-3,3-3c5.3,0,8.2,2,10.5,3.5c2,1.4,3.7,2.5,7.1,2.5  c3.5,0,5.1-1.1,7.1-2.5c2.3-1.6,5.2-3.5,10.5-3.5c5.3,0,8.2,2,10.5,3.5c2,1.4,3.7,2.5,7.1,2.5c1.7,0,3,1.3,3,3S78,44.2,76.3,44.2z"/><path d="M76.3,70.2c-5.3,0-8.2-2-10.5-3.5c-2-1.4-3.7-2.5-7.1-2.5s-5.1,1.1-7.1,2.5c-2.3,1.6-5.2,3.5-10.5,3.5  c-5.3,0-8.2-2-10.5-3.5c-2-1.4-3.7-2.5-7.1-2.5c-1.7,0-3-1.3-3-3s1.3-3,3-3c5.3,0,8.2,2,10.5,3.5c2,1.4,3.7,2.5,7.1,2.5  c3.5,0,5.1-1.1,7.1-2.5c2.3-1.6,5.2-3.5,10.5-3.5c5.3,0,8.2,2,10.5,3.5c2,1.4,3.7,2.5,7.1,2.5c1.7,0,3,1.3,3,3S78,70.2,76.3,70.2z"/><text x="0" y="115" fill="#000000" font-size="5px" font-weight="bold" font-family="'Helvetica Neue', Helvetica, Arial-Unicode, Arial, Sans-serif">Created by Sweet Farm</text><text x="0" y="120" fill="#000000" font-size="5px" font-weight="bold" font-family="'Helvetica Neue', Helvetica, Arial-Unicode, Arial, Sans-serif">from the Noun Project</text></svg>